<svg width="32" height="32" viewBox="0 0 32 32" fill="none" xmlns="http://www.w3.org/2000/svg">
<rect width="32" height="32" fill="#009EE8"/>
<path d="M18.9167 17.6667H18.2583L18.025 17.4417C18.8417 16.4917 19.3333 15.2583 19.3333 13.9167C19.3333 10.925 16.9083 8.5 13.9167 8.5C10.925 8.5 8.5 10.925 8.5 13.9167C8.5 16.9083 10.925 19.3333 13.9167 19.3333C15.2583 19.3333 16.4917 18.8417 17.4417 18.025L17.6667 18.2583V18.9167L21.8333 23.075L23.075 21.8333L18.9167 17.6667ZM13.9167 17.6667C11.8417 17.6667 10.1667 15.9917 10.1667 13.9167C10.1667 11.8417 11.8417 10.1667 13.9167 10.1667C15.9917 10.1667 17.6667 11.8417 17.6667 13.9167C17.6667 15.9917 15.9917 17.6667 13.9167 17.6667Z" fill="white"/>
</svg>
