<svg width="22" height="22" viewBox="0 0 22 22" fill="none" xmlns="http://www.w3.org/2000/svg">
<path d="M10.9996 0.167356C13.6904 0.135512 16.2897 1.14656 18.2481 2.98556L15.1553 6.07842C14.0367 5.01164 12.544 4.43049 10.9996 4.45437C8.17343 4.45437 5.77318 6.36104 4.91737 8.92847C4.46359 10.2739 4.46359 11.7307 4.91737 13.0762C5.78114 15.6396 8.17741 17.5463 11.0036 17.5463C12.4644 17.5463 13.7183 17.1721 14.6895 16.5113L14.6855 16.513C15.7518 15.8055 16.5025 14.7216 16.7953 13.4864L16.8509 13.2195H10.9996V9.04788H21.2176C21.345 9.77234 21.4047 10.5127 21.4047 11.2491C21.4047 14.545 20.2264 17.3313 18.1765 19.2181L18.1781 19.2149C16.4633 20.802 14.1343 21.7486 11.3781 21.8279L10.9996 21.8333C6.90365 21.8333 3.15798 19.5246 1.31898 15.8665L1.16024 15.5365C-0.215534 12.5486 -0.162619 9.08982 1.31898 6.13813L1.47661 5.83611C3.36635 2.34957 7.01742 0.167356 10.9996 0.167356Z" fill="white"/>
</svg>
