<svg width="22" height="18" viewBox="0 0 22 18" fill="none" xmlns="http://www.w3.org/2000/svg">
<path fill-rule="evenodd" clip-rule="evenodd" d="M19.6062 4.65315C19.6199 4.84272 19.6199 5.03234 19.6199 5.22191C19.6199 11.0042 15.1519 17.6667 6.9856 17.6667C4.46972 17.6667 2.13259 16.949 0.166626 15.7032C0.524085 15.7438 0.867749 15.7573 1.23896 15.7573C3.31486 15.7573 5.22585 15.0667 6.75188 13.8886C4.79967 13.848 3.16366 12.5886 2.59999 10.8552C2.87496 10.8958 3.14991 10.9229 3.43864 10.9229C3.83732 10.9229 4.23604 10.8688 4.60721 10.774C2.57252 10.3677 1.04646 8.60732 1.04646 6.48128V6.42714C1.6376 6.75214 2.32505 6.95526 3.05364 6.98231C1.85756 6.19688 1.07396 4.85627 1.07396 3.33959C1.07396 2.52711 1.29389 1.78232 1.67886 1.13231C3.86478 3.78648 7.15056 5.51978 10.835 5.7094C10.7662 5.38439 10.725 5.04589 10.725 4.70734C10.725 2.29689 12.7047 0.333374 15.1656 0.333374C16.4441 0.333374 17.5989 0.861498 18.4101 1.71462C19.4136 1.52505 20.376 1.15941 21.2284 0.658376C20.8984 1.67402 20.1973 2.52715 19.2762 3.06878C20.1698 2.97403 21.0359 2.73023 21.8333 2.39172C21.2285 3.25835 20.4723 4.0302 19.6062 4.65315Z" fill="white"/>
</svg>
